<svg id="Layer_1" data-name="Layer 1" xmlns="http://www.w3.org/2000/svg" width="120" height="120" viewBox="0 0 120 120">
  <defs>
    <style>
      .cls-1 {
        fill: none;
        stroke: #f7991c;
      }
    </style>
  </defs>
  <title>Artboard 1</title>
  <g>
    <path id="_Compound_Path_" data-name="&lt;Compound Path&gt;" class="cls-1" d="M80.31,61.75V44.53c0-7.3.52-14-4.86-19C71.21,21.44,64.18,20,58.8,20c-10.52,0-22.26,3.93-24.72,16.93a1.94,1.94,0,0,0,1.65,2.31L46.44,40.4a2.34,2.34,0,0,0,1.92-2c.92-4.48,4.67-6.64,8.88-6.64,2.28,0,4.87.83,6.21,2.87,1.55,2.27,1.35,5.38,1.35,8v1.43C58.39,44.77,50,45.25,44,47.88A18.78,18.78,0,0,0,32.22,66c0,11.49,7.24,17.23,16.55,17.23,7.86,0,12.16-1.85,18.22-8,2,2.9,2.67,4.31,6.34,7.36a2.27,2.27,0,0,0,2.61-.26l0,0c2.2-2,6.22-5.45,8.48-7.34.9-.74.74-1.93,0-2.94C82.46,69.21,80.31,66.94,80.31,61.75ZM62.73,67c-1.76,3.11-4.55,5-7.66,5-4.24,0-6.72-3.23-6.72-8,0-9.42,8.45-11.13,16.45-11.13V55.3C64.8,59.61,64.9,63.2,62.73,67Z"/>
    <path id="_Path_" data-name="&lt;Path&gt;" class="cls-1" d="M96.88,89c-10,7.35-24.39,11.26-36.82,11.26a66.63,66.63,0,0,1-45-17.16"/>
    <path id="_Path_2" data-name="&lt;Path&gt;" class="cls-1" d="M88.49,84.11c5.71-3.85,14.87-2.71,15.94-1.38s-.27,10.58-5.52,15.09"/>
  </g>
</svg>
