<?xml version="1.0" encoding="UTF-8"?>
<svg width="120px" height="120px" viewBox="0 0 120 120" version="1.1" xmlns="http://www.w3.org/2000/svg" xmlns:xlink="http://www.w3.org/1999/xlink">
    <!-- Generator: Sketch 41 (35326) - http://www.bohemiancoding.com/sketch -->
    <title>Rectangle Copy 6</title>
    <desc>Created with Sketch.</desc>
    <defs></defs>
    <g id="Page-1" stroke="none" stroke-width="1" fill="none" fill-rule="evenodd">
        <g id="Desktop" transform="translate(-463.000000, -701.000000)" stroke="#F69C35">
            <g id="Group-9-Copy" transform="translate(483.000000, 723.000000)">
                <g id="Group-7">
                    <path d="M40.2489256,56.9235041 C36.6740496,56.9235041 33.7755372,53.7221818 33.7755372,50.0792066 L33.7755372,34.7311074 C33.7755372,31.0874711 36.6740496,28.421686 40.2489256,28.421686" id="Stroke-1"></path>
                    <path d="M39.9926612,56.9235041 C43.5675372,56.9235041 46.4660496,53.7221818 46.4660496,50.0792066 L46.4660496,34.7311074 C46.4660496,31.0874711 43.5675372,28.421686 39.9926612,28.421686" id="Stroke-3"></path>
                    <path d="M32.2811901,70.2144793 L47.3225124,70.2144793" id="Stroke-5"></path>
                    <path d="M29.2467438,45.4786777 L29.2467438,52.0214876 C29.8345124,57.9586777 33.7551736,62.2998347 39.7221157,62.2482645 L39.8232727,62.2482645 C45.8675702,62.2482645 49.9131901,57.7570248 50.338314,51.9355372 L50.3528595,45.4099174" id="Stroke-7"></path>
                    <path d="M39.8333884,65.2582479 L39.8333884,69.7250248" id="Stroke-9"></path>
                    <polyline id="Stroke-11" points="27.3077025 67.1114711 14.0627438 75.7276694 23.4095207 46.9660165 0.310677686 29.1960992 30.5579504 29.1960992 39.9252231 0.409983471 49.2462149 29.1960992 79.5027438 29.1960992 56.4204298 46.9660165 65.7711736 75.7276694 52.8865455 67.3673388"></polyline>
                </g>
            </g>
        </g>
    </g>
</svg>